<svg width="26" height="31" viewBox="0 0 26 31" fill="none" xmlns="http://www.w3.org/2000/svg">
<path d="M25.5002 21.4186C24.379 20.2138 22.281 18.4014 22.281 12.4644C22.281 7.955 19.1192 4.34519 14.856 3.45957V2.25011C14.856 1.22462 14.0249 0.392975 13 0.392975C11.9751 0.392975 11.144 1.22462 11.144 2.25011V3.45957C6.88072 4.34519 3.71895 7.955 3.71895 12.4644C3.71895 18.4014 1.62097 20.2138 0.499725 21.4186C0.151513 21.793 -0.00286165 22.2404 4.0125e-05 22.6786C0.00642403 23.6304 0.75334 24.5357 1.86298 24.5357H24.137C25.2466 24.5357 25.9941 23.6304 25.9999 22.6786C26.0028 22.2404 25.8485 21.7924 25.5002 21.4186ZM3.91918 21.75C5.15069 20.1268 6.49711 17.4363 6.50349 12.498C6.50349 12.4864 6.50001 12.476 6.50001 12.4644C6.50001 8.87428 9.40991 5.96438 13 5.96438C16.5901 5.96438 19.5 8.87428 19.5 12.4644C19.5 12.476 19.4965 12.4864 19.4965 12.498C19.5029 17.4368 20.8493 20.1274 22.0808 21.75H3.91918ZM13 30.1071C15.0498 30.1071 16.7125 28.4444 16.7125 26.3929H9.28746C9.28746 28.4444 10.9502 30.1071 13 30.1071Z" fill="black"/>
</svg>
