<svg width="26" height="26" viewBox="0 0 26 26" fill="none" xmlns="http://www.w3.org/2000/svg">
<path d="M25.4419 22.4047L20.419 17.3818C20.1923 17.1551 19.885 17.0291 19.5626 17.0291H18.7414C20.1319 15.2507 20.9581 13.0139 20.9581 10.5805C20.9581 4.79183 16.2677 0.10144 10.4791 0.10144C4.69039 0.10144 0 4.79183 0 10.5805C0 16.3692 4.69039 21.0596 10.4791 21.0596C12.9124 21.0596 15.1493 20.2333 16.9277 18.8428V19.664C16.9277 19.9865 17.0537 20.2938 17.2804 20.5205L22.3033 25.5434C22.7768 26.017 23.5426 26.017 24.0111 25.5434L25.4369 24.1176C25.9105 23.6441 25.9105 22.8783 25.4419 22.4047ZM10.4791 17.0291C6.91719 17.0291 4.03041 14.1474 4.03041 10.5805C4.03041 7.01863 6.91215 4.13185 10.4791 4.13185C14.0409 4.13185 16.9277 7.01359 16.9277 10.5805C16.9277 14.1424 14.046 17.0291 10.4791 17.0291Z" fill="#959494" fill-opacity="0.7"/>
</svg>
